<svg width="13" height="13" viewBox="0 0 13 13" fill="none" xmlns="http://www.w3.org/2000/svg">
  <path d="M6.5 0.25C3.04822 0.25 0.25 3.04822 0.25 6.5C0.25 9.95175 3.04822 12.75 6.5 12.75C9.95175 12.75 12.75 9.95175 12.75 6.5C12.75 3.04822 9.95175 0.25 6.5 0.25ZM4.15625 6.5C4.15625 6.9315 3.80647 7.28125 3.375 7.28125C2.94353 7.28125 2.59375 6.9315 2.59375 6.5C2.59375 6.0685 2.94353 5.71875 3.375 5.71875C3.80647 5.71875 4.15625 6.0685 4.15625 6.5ZM7.28125 6.5C7.28125 6.9315 6.9315 7.28125 6.5 7.28125C6.0685 7.28125 5.71875 6.9315 5.71875 6.5C5.71875 6.0685 6.0685 5.71875 6.5 5.71875C6.9315 5.71875 7.28125 6.0685 7.28125 6.5ZM10.4062 6.5C10.4062 6.9315 10.0565 7.28125 9.625 7.28125C9.1935 7.28125 8.84375 6.9315 8.84375 6.5C8.84375 6.0685 9.1935 5.71875 9.625 5.71875C10.0565 5.71875 10.4062 6.0685 10.4062 6.5Z" fill="#212121"/>
</svg>
