<svg width="146" height="199" viewBox="0 0 146 199" fill="none" xmlns="http://www.w3.org/2000/svg">
  <path d="M65.5294 36.1985L65.1845 36.0769C65.0821 36.0409 64.9857 36.0651 64.9693 36.1312L64.4732 38.1238C64.4567 38.1899 64.5264 38.2727 64.6288 38.3088L64.9738 38.4303C65.0762 38.4664 65.1726 38.4421 65.189 38.3761L65.6851 36.3835C65.7016 36.3174 65.6319 36.2346 65.5294 36.1985Z" fill="#3F3D56"/>
  <path d="M64.5304 39.9671L64.1823 39.8452C64.0788 39.809 63.9833 39.826 63.969 39.8832L63.2728 42.6608C63.2585 42.718 63.3307 42.7937 63.4342 42.8299L63.7823 42.9517C63.8858 42.988 63.9813 42.971 63.9956 42.9138L64.6918 40.1362C64.7062 40.079 64.6339 40.0033 64.5304 39.9671Z" fill="#3F3D56"/>
  <path d="M63.3324 44.4891L62.9818 44.367C62.8775 44.3307 62.7792 44.3561 62.7621 44.4238L61.8818 47.9166C61.8647 47.9843 61.9354 48.0685 62.0397 48.1048L62.3903 48.2269C62.4946 48.2632 62.593 48.2378 62.61 48.1701L63.4904 44.6773C63.5074 44.6096 63.4367 44.5254 63.3324 44.4891Z" fill="#3F3D56"/>
  <path d="M89.0511 37.5369L68.3803 30.1874C66.8917 29.6582 65.4068 30.3565 65.0637 31.7472L54.0964 76.1963C53.7533 77.587 54.6818 79.1435 56.1704 79.6727L76.8412 87.0222C78.3298 87.5514 79.8147 86.8531 80.1578 85.4624L91.1251 41.0133C91.4682 39.6226 90.5397 38.0661 89.0511 37.5369Z" fill="#3F3D56"/>
  <path d="M89.5265 41.3522L78.9652 84.1064C78.8392 84.6157 78.5027 85.0275 78.0297 85.2513C77.5567 85.475 76.986 85.4924 76.4431 85.2996L57.9414 78.729C57.3984 78.5361 56.9277 78.1489 56.6326 77.6524C56.3376 77.1559 56.2425 76.5908 56.3681 76.0813L66.9294 33.3272C66.9917 33.0749 67.1064 32.8439 67.2669 32.6473C67.4274 32.4508 67.6305 32.2926 67.8647 32.1817C68.0989 32.0709 68.3596 32.0095 68.6319 32.0012C68.9042 31.9929 69.1827 32.0377 69.4517 32.1332L72.2203 33.1165L72.1379 33.4501C72.0351 33.8695 72.1138 34.3344 72.3568 34.7429C72.5997 35.1513 72.987 35.4699 73.4337 35.6287L82.8467 38.9716C83.0681 39.0502 83.2975 39.0872 83.5217 39.0803C83.7459 39.0735 83.9605 39.023 84.1534 38.9317C84.3463 38.8404 84.5135 38.7101 84.6457 38.5483C84.7778 38.3864 84.8723 38.1962 84.9236 37.9885L85.0055 37.657L87.9571 38.7052C88.4993 38.8988 88.9691 39.2862 89.2633 39.7825C89.5576 40.2787 89.6522 40.8433 89.5265 41.3522Z" fill="white"/>
  <path opacity="0.2" d="M84.9935 58.8183L81.4568 73.2009L81.2989 73.1445L81.2953 73.1591L59.2839 65.3065L63.6047 47.7352C63.7836 47.6321 63.9659 47.5239 64.1515 47.4106C68.1078 44.996 72.5371 45.5693 75.8131 46.6324C78.0583 47.358 80.1684 48.5882 82.0717 50.2152C83.077 51.0746 84.5581 52.152 86.2952 52.8261L84.9582 58.2635C84.9937 58.5921 84.9935 58.8183 84.9935 58.8183Z" fill="#FF8B33"/>
  <path opacity="0.2" d="M84.4868 60.4537L78.7545 83.766L56.492 75.8235L60.247 60.5525C61.1153 60.5285 62.5126 59.7434 64.7348 56.9899C67.3931 53.6952 69.9538 53.4927 71.7671 54.0222C73.0093 54.3847 74.1094 55.3028 75.0348 56.6855C76.0764 58.2392 78.2767 60.4496 81.1289 57.3292C84.2825 53.8786 84.5562 57.75 84.5269 59.5891C84.5185 60.0983 84.4868 60.4537 84.4868 60.4537Z" fill="#FF8B33"/>
  <path d="M81.7098 58.4751L65.5945 52.7389C65.1045 52.5646 64.4808 53.3423 64.2014 54.476L62.009 63.3717C61.7295 64.5054 61.9002 65.5659 62.3901 65.7402L78.5055 71.4764C78.9954 71.6508 79.6191 70.873 79.8985 69.7393L82.091 60.8436C82.3704 59.7099 82.1998 58.6494 81.7098 58.4751Z" fill="white"/>
  <g clip-path="url(#clip0_0_218)">
    <path d="M73.9804 67.2507C74.0141 67.2648 74.0436 67.2296 74.0238 67.1961L74.0237 67.1851C74.0243 67.1845 74.0248 67.1838 74.0254 67.1831C74.0804 67.114 74.1977 67.1555 74.2116 67.2488C74.2239 67.3316 74.2445 67.4175 74.2349 67.4972C74.2307 67.5323 74.2202 67.566 74.2042 67.5964C74.3142 67.4679 74.3939 67.3135 74.4363 67.145C74.4469 67.1027 74.4552 67.0596 74.461 67.0157C74.4657 66.9797 74.4689 66.9435 74.4704 66.907C74.4783 66.7099 74.4396 66.5059 74.357 66.3179C74.3073 66.2671 74.2716 66.2021 74.2572 66.1342C74.252 66.1098 74.2495 66.0845 74.2514 66.0603C74.2578 66.0634 74.3004 65.9719 74.297 65.9642C74.3095 65.9538 74.3275 65.9527 74.3408 65.9429C74.4068 65.8943 74.472 65.9296 74.4851 66.0316C74.5516 66.0958 74.5366 66.1586 74.4749 66.2024C74.4356 66.2303 74.4185 66.2807 74.3822 66.3125C74.384 66.3169 74.386 66.3211 74.3878 66.3254C74.4213 66.4044 74.4471 66.4858 74.4653 66.5682C74.4747 66.487 74.5132 66.3986 74.5538 66.3471C74.6001 66.2885 74.669 66.2496 74.7317 66.2068C74.8071 66.1555 74.9171 66.2278 74.9045 66.3218C74.9044 66.3227 74.9043 66.3236 74.9041 66.3245C74.8961 66.326 74.888 66.3277 74.8801 66.3298C74.835 66.3415 74.8335 66.4053 74.8777 66.4283L74.8787 66.4288C74.8699 66.4531 74.8592 66.4765 74.8466 66.4988C74.8493 66.7536 74.6954 66.7923 74.5053 66.7301C74.5006 66.7308 74.496 66.7315 74.4913 66.732C74.4971 66.7918 74.4988 66.8516 74.4962 66.9107C74.4942 66.963 74.4888 67.0147 74.4804 67.0656C74.4696 67.1298 74.4534 67.1924 74.4324 67.2528L74.4332 67.2507C74.4641 67.1868 74.5181 67.1359 74.5843 67.1107C74.683 67.0731 74.8049 67.0891 74.9068 67.0668C74.9558 67.056 75.002 67.1082 74.9824 67.1541L74.9815 67.1563C74.967 67.157 74.9526 67.1586 74.9384 67.1611C74.9304 67.1626 74.9223 67.1643 74.9144 67.1664C74.8693 67.1781 74.8678 67.2419 74.912 67.2649L74.913 67.2654C74.9138 67.2658 74.9144 67.2661 74.9151 67.2665C74.8793 67.3113 74.8355 67.3493 74.7854 67.3778C74.6959 67.5681 74.5262 67.5299 74.3648 67.4091L74.3647 67.409C74.3246 67.4848 74.2762 67.5557 74.2207 67.6199L73.9219 67.5156C73.9217 67.512 73.9216 67.5083 73.9214 67.5047C73.9486 67.516 73.9769 67.5242 74.0053 67.5287C73.9899 67.4942 73.9745 67.4595 73.959 67.425C73.9586 67.4243 73.9583 67.4237 73.958 67.423C73.9502 67.4054 73.9423 67.3878 73.9345 67.3702L73.9345 67.3702C73.9444 67.3279 73.96 67.2878 73.9804 67.2507Z" fill="#F2F2F2"/>
    <path d="M67.5037 64.9904C67.469 64.9806 67.4605 64.9321 67.4926 64.9168L67.4977 64.9076C67.4976 64.9067 67.4974 64.9057 67.4973 64.9048C67.4831 64.8115 67.3655 64.7711 67.3107 64.8404C67.2621 64.902 67.2051 64.9608 67.1764 65.0338C67.1636 65.066 67.1569 65.1009 67.1562 65.1367C67.1234 64.9583 67.1279 64.7777 67.1702 64.6092C67.1809 64.5669 67.1939 64.5254 67.2093 64.4848C67.2219 64.4517 67.236 64.4193 67.2517 64.3877C67.3361 64.2172 67.4629 64.071 67.619 63.9664C67.6842 63.9556 67.7442 63.9241 67.7876 63.8764C67.8033 63.8592 67.817 63.8396 67.8266 63.8181C67.8199 63.8166 67.8264 63.7125 67.8328 63.7082C67.8271 63.6915 67.8125 63.679 67.8059 63.6623C67.773 63.5791 67.702 63.5669 67.644 63.644C67.5585 63.6552 67.5421 63.7175 67.5736 63.7939C67.5936 63.8425 67.5847 63.8957 67.6004 63.9457C67.5969 63.9482 67.5932 63.9504 67.5897 63.9529C67.5251 63.9977 67.4659 64.0494 67.4125 64.1068C67.4422 64.0326 67.4508 63.9338 67.4405 63.8646C67.4288 63.7857 67.389 63.7089 67.3561 63.6327C67.3166 63.5413 67.1909 63.5313 67.158 63.6183C67.1577 63.6191 67.1574 63.62 67.1571 63.6208C67.1632 63.6272 67.1691 63.6339 67.1748 63.6407C67.2072 63.6794 67.179 63.7339 67.1313 63.7248L67.1302 63.7246C67.1264 63.7506 67.1245 63.7771 67.1248 63.8039C67.0048 64.0159 67.1159 64.1471 67.3041 64.217C67.3078 64.2205 67.3113 64.224 67.315 64.2275C67.2825 64.2739 67.2535 64.323 67.2283 64.3742C67.2058 64.4194 67.1864 64.4662 67.17 64.5143C67.1494 64.575 67.134 64.6379 67.1237 64.7021L67.1239 64.6998C67.1276 64.6264 67.1058 64.5491 67.0619 64.4854C66.9966 64.3906 66.8869 64.3257 66.8118 64.2416C66.7757 64.2012 66.7128 64.2152 66.708 64.2664L66.7078 64.2688C66.7196 64.2787 66.7309 64.2893 66.7416 64.3004C66.7478 64.3069 66.7537 64.3135 66.7594 64.3203C66.7918 64.359 66.7635 64.4135 66.7158 64.4044L66.7147 64.4042C66.714 64.4041 66.7133 64.4039 66.7125 64.4038C66.7219 64.4644 66.741 64.5244 66.7698 64.5803C66.757 64.7975 66.9169 64.8743 67.1082 64.8765L67.1083 64.8766C67.1068 64.9658 67.1147 65.0563 67.1316 65.1458L67.4303 65.2501C67.4322 65.2472 67.434 65.2442 67.4358 65.2412C67.4077 65.2333 67.3803 65.222 67.3543 65.2075C67.3832 65.1885 67.4122 65.1693 67.4411 65.1503C67.4417 65.15 67.4423 65.1496 67.4429 65.1492C67.4575 65.1394 67.4723 65.1298 67.487 65.1201L67.487 65.12C67.4983 65.0783 67.5037 65.0346 67.5037 64.9904Z" fill="#F2F2F2"/>
    <path d="M66.1456 64.8267C66.1429 64.8374 66.1495 64.8491 66.1605 64.853L75.0683 67.9618C75.0793 67.9656 75.0902 67.96 75.0929 67.9493C75.0956 67.9385 75.089 67.9268 75.0781 67.923L66.1702 64.8142C66.1593 64.8103 66.1483 64.8159 66.1456 64.8267Z" fill="#CCCCCC"/>
    <path d="M72.6618 66.6949L72.8381 66.7549L73.0877 66.0991L72.8275 66.0106L72.6618 66.6949Z" fill="#A0616A"/>
    <path d="M73.1376 67.0914L72.9037 66.8058L72.9338 66.6817L72.8724 66.6645L72.6818 66.6119L72.6351 66.5988L72.4918 67.0248L72.6241 67.0697L72.6775 66.9549L72.708 67.0983L73.0586 67.2175C73.1022 67.2323 73.1459 67.2094 73.1562 67.1667C73.1624 67.1413 73.1554 67.1131 73.1376 67.0914Z" fill="#2F2E41"/>
    <path d="M71.7665 66.3825L71.9428 66.4424L72.1924 65.7867L71.9322 65.6982L71.7665 66.3825Z" fill="#A0616A"/>
    <path d="M72.2424 66.7789L72.0085 66.4934L72.0385 66.3692L71.9771 66.3521L71.7866 66.2994L71.7399 66.2864L71.5965 66.7124L71.7288 66.7573L71.7822 66.6424L71.8127 66.7859L72.1633 66.9051C72.2069 66.9199 72.2506 66.897 72.2609 66.8543C72.2671 66.8288 72.2602 66.8007 72.2424 66.7789Z" fill="#2F2E41"/>
    <path d="M75.44 57.7735C75.3672 57.8407 75.368 57.9606 75.4418 58.0415C75.4757 58.0785 75.519 58.1007 75.563 58.1076L75.5631 58.1079L75.728 58.4303L76.0174 58.4283L75.763 57.9325L75.7614 57.9334C75.7601 57.8861 75.7417 57.8375 75.7057 57.7982C75.6319 57.7174 75.5129 57.7063 75.44 57.7735Z" fill="#A0616A"/>
    <path d="M74.7402 61.4144L74.0214 61.1877L73.3086 61.0995C73.3086 61.0995 73.3557 61.2043 73.0748 61.3471C73.0748 61.3471 72.6446 61.7591 72.7286 62.3345L72.4575 63.668C72.4575 63.668 72.4816 63.7895 72.4346 63.7804C72.3876 63.7713 72.3713 63.8503 72.4067 63.9178C72.442 63.9854 72.3862 64.0186 72.3862 64.0186C72.4636 64.1117 72.3541 64.2515 72.3139 64.374C72.3139 64.374 71.6954 65.6978 71.7828 66.2184L72.044 66.3273L72.962 64.6179L73.6859 62.6846L73.2937 64.6998C73.2937 64.6998 72.5502 65.9175 72.6686 66.5452L72.96 66.6292L73.9243 64.9199C73.9243 64.9199 74.2218 64.0946 74.4618 63.3748C74.4793 63.3222 74.4871 63.1923 74.5133 63.219C74.5396 63.2456 74.4955 63.0906 74.5546 63.0924C74.6137 63.0942 74.5552 62.9284 74.5988 62.9542C74.6424 62.9801 74.8365 61.8809 74.8545 61.7774C74.9284 61.3535 74.7402 61.4144 74.7402 61.4144Z" fill="#2F2E41"/>
    <path d="M74.805 59.5391C74.7292 59.5127 74.6633 59.4582 74.6207 59.3844C74.5635 59.2855 74.5596 59.1715 74.6103 59.0795C74.6687 58.9737 74.787 58.922 74.9115 58.9478L75.9438 59.1622L75.6091 58.2741L75.9338 58.2309L76.4698 59.3369C76.5073 59.4143 76.5046 59.5004 76.4625 59.5673C76.4205 59.6342 76.3464 59.6703 76.2643 59.6639L74.8857 59.5561C74.858 59.5539 74.8309 59.5482 74.805 59.5391Z" fill="#E6E6E6"/>
    <path d="M74.9142 61.7965L73.0866 61.2473C73.0556 61.1559 73.097 61.0491 73.2016 60.9338C73.5965 60.4986 73.6478 59.4322 73.6442 58.8664C73.6431 58.7077 73.7805 58.5982 73.9363 58.6363L74.1109 58.679L74.3873 58.2612L74.9389 58.4537L75.1031 58.7906L75.4332 59.1582C75.1825 59.8495 74.6271 60.7554 74.9288 61.4122C74.9947 61.5558 74.9912 61.685 74.9142 61.7965Z" fill="#E6E6E6"/>
    <path d="M74.6466 58.2773C74.6009 58.2779 74.5546 58.2772 74.5074 58.2724C74.446 58.266 74.4118 58.2611 74.3613 58.2203C74.3595 58.2188 74.3578 58.2175 74.3563 58.2161C74.1692 58.0578 74.0726 57.8023 74.1282 57.5614C74.1289 57.5574 74.13 57.5534 74.131 57.5494C74.1358 57.5301 74.1415 57.5112 74.1482 57.493C74.1573 57.4676 74.1679 57.4433 74.1802 57.4202L74.1797 57.4199C74.1459 57.3587 74.1442 57.2904 74.1657 57.2299C74.1935 57.1507 74.261 57.0847 74.3478 57.0646C74.4124 57.0497 74.4818 57.0489 74.5522 57.0649C74.5704 57.0691 74.5887 57.0743 74.607 57.0807L74.7766 57.1399C74.8147 57.1443 74.8519 57.1511 74.8872 57.1605L74.8875 57.1606C75.2359 57.252 75.4492 57.5685 75.356 57.8305C75.3558 57.8307 75.3554 57.8309 75.3552 57.8312C75.345 57.8403 75.3358 57.8491 75.3275 57.8576C75.3195 57.8655 75.3125 57.8734 75.3062 57.8809C75.2577 57.9393 75.1358 59.0647 75.0786 59.0625C75.046 59.0612 75.1251 58.2196 75.1087 58.3792C75.0884 58.5795 74.8182 58.275 74.6466 58.2773Z" fill="#2F2E41"/>
    <path d="M74.6698 58.2044C74.8915 58.2818 75.1158 58.1678 75.1706 57.9497C75.2254 57.7317 75.0901 57.4921 74.8683 57.4147C74.6465 57.3373 74.4223 57.4514 74.3675 57.6694C74.3127 57.8875 74.448 58.127 74.6698 58.2044Z" fill="#A0616A"/>
    <path d="M75.1602 57.7645C75.1526 57.7656 75.1452 57.7665 75.1377 57.7674C75.1299 57.7682 75.1221 57.7691 75.1143 57.7697C74.9648 57.7827 74.8537 57.7512 74.8089 57.6419C74.8184 57.5962 74.8194 57.5478 74.8114 57.4997C74.8032 57.547 74.7786 57.5895 74.7429 57.6189L74.6092 57.5722C74.4488 57.614 74.3574 57.6719 74.3788 58.0004C74.3802 58.0219 74.2497 58.7256 74.2486 58.7828C74.0599 58.6314 74.0899 57.7336 74.1406 57.512C74.1413 57.5083 74.1422 57.5046 74.1431 57.5009C74.1476 57.4832 74.1529 57.4658 74.1592 57.4492C74.1678 57.4259 74.1779 57.4037 74.1897 57.3826L74.1891 57.3823C74.1544 57.3248 74.1514 57.2614 74.1717 57.2059C74.2177 57.1733 74.2706 57.1501 74.3275 57.138C74.3772 57.1323 74.4283 57.1314 74.4802 57.1352C74.4815 57.1353 74.4826 57.1354 74.4838 57.1355C74.4995 57.1367 74.5155 57.1384 74.5313 57.1406C74.5637 57.145 74.5961 57.1512 74.6289 57.1594C74.6312 57.1601 74.6335 57.1607 74.6355 57.1614C74.6487 57.166 74.6599 57.1738 74.669 57.1836C74.6691 57.1837 74.6691 57.1838 74.6693 57.1838C74.6759 57.191 74.6812 57.1994 74.6848 57.2084C74.6912 57.2231 74.6928 57.2394 74.6889 57.2551L74.8379 57.3071C74.8433 57.309 74.8488 57.3111 74.8542 57.3133C75.0596 57.3939 75.2045 57.5393 75.1647 57.7436C75.1635 57.7507 75.1619 57.7575 75.1602 57.7645Z" fill="#2F2E41"/>
    <path d="M74.2754 57.4729C74.4215 57.5239 74.5692 57.4488 74.6053 57.3051C74.6414 57.1615 74.5523 57.0037 74.4062 56.9527C74.26 56.9017 74.1123 56.9768 74.0762 57.1205C74.0401 57.2642 74.1293 57.422 74.2754 57.4729Z" fill="#2F2E41"/>
    <path d="M74.7343 57.2193C74.6689 57.3494 74.4995 57.3817 74.3663 57.2978C74.2331 57.2139 74.1818 57.0427 74.2519 56.9154C74.3219 56.7882 74.484 56.8885 74.6199 56.8369C74.8122 56.764 74.8225 57.0438 74.7343 57.2193Z" fill="#2F2E41"/>
    <path d="M74.4723 60.3701C74.4759 60.2658 74.3947 60.1699 74.2909 60.156C74.2434 60.1496 74.1995 60.1616 74.1653 60.1865L74.1651 60.1864L73.838 60.0411L73.6456 60.2426L74.1492 60.4654L74.1497 60.4636C74.1823 60.5007 74.2274 60.527 74.2779 60.5338C74.3817 60.5478 74.4687 60.4745 74.4723 60.3701Z" fill="#A0616A"/>
    <path d="M72.8879 60.0478C72.7925 60.0145 72.7169 59.9367 72.6857 59.8395C72.6543 59.7417 72.6732 59.6411 72.7361 59.5703L73.5633 58.6408C73.6324 58.5631 73.7379 58.5333 73.8453 58.5612C73.9526 58.589 74.0407 58.669 74.0806 58.775C74.1265 58.8971 74.0971 59.0259 74.0058 59.1032L73.2488 59.7436L74.1098 60.1313L73.9549 60.4134L72.8896 60.0484L72.8879 60.0478Z" fill="#E6E6E6"/>
    <path d="M75.5721 58.2482C75.5721 58.2478 75.5722 58.2476 75.5723 58.2473C75.574 58.2433 75.5788 58.2441 75.5804 58.2444C75.5888 58.2458 75.6335 58.2625 75.6368 58.2761C75.6378 58.2802 75.6495 58.2833 75.6581 58.2855C75.6641 58.2871 75.6703 58.2887 75.6755 58.291C75.8082 58.3493 75.9131 58.3838 75.9787 58.3907C76.0284 58.3959 76.0748 58.3809 76.1094 58.3486C76.144 58.3163 76.1624 58.2712 76.1607 58.221L76.1564 58.0777C76.155 58.0282 76.1343 57.9806 76.0983 57.9435C76.062 57.9062 76.0148 57.8844 75.9654 57.8821C75.8732 57.8778 75.73 57.911 75.6261 57.9396C75.6219 57.9408 75.6161 57.9416 75.6104 57.9424C75.6057 57.9431 75.5989 57.9441 75.5955 57.9451C75.5958 57.9467 75.5952 57.9478 75.595 57.9483C75.5931 57.9518 75.5891 57.9511 75.5841 57.9502C75.581 57.9497 75.5738 57.9485 75.5721 57.95C75.5719 57.9502 75.5719 57.9509 75.5719 57.9513C75.5723 57.9558 75.5699 57.9573 75.5685 57.9577C75.5642 57.9591 75.5613 57.9556 75.5561 57.9493C75.5521 57.9444 75.5428 57.933 75.5387 57.9341C75.5377 57.9344 75.5323 57.9371 75.5312 57.9642C75.5309 57.972 75.5278 57.9779 75.5224 57.9814C75.5091 57.9899 75.4859 57.9815 75.4849 57.9812L75.4236 57.9535C75.3104 57.9025 75.1874 57.9043 75.086 57.9586L75.0847 57.9592L75.0205 57.9535L75.0224 58.1455L75.0884 58.1515L75.0898 58.1527C75.1735 58.2279 75.2894 58.2472 75.4443 58.212L75.4883 58.202L75.4897 58.2025C75.5148 58.2112 75.5454 58.2234 75.5489 58.2322C75.5495 58.2336 75.5496 58.2351 75.5493 58.2364C75.5526 58.2397 75.5644 58.2455 75.5721 58.2482Z" fill="#FF8B33"/>
    <path d="M74.9222 58.1436C74.9223 58.1513 74.9285 58.1581 74.9361 58.1588L75.0292 58.1671C75.0368 58.1678 75.0429 58.1621 75.0428 58.1545L75.0407 57.939C75.0406 57.9313 75.0344 57.9245 75.0267 57.9238L74.9337 57.9154C74.9261 57.9147 74.92 57.9204 74.92 57.9281L74.9222 58.1436Z" fill="#3F3D56"/>
    <path d="M74.9286 58.0968C74.9562 58.1064 74.984 58.0922 74.9909 58.0651C74.9977 58.038 74.9808 58.0083 74.9533 57.9987C74.9257 57.989 74.8978 58.0032 74.891 58.0303C74.8842 58.0574 74.901 58.0872 74.9286 58.0968Z" fill="#3F3D56"/>
    <path d="M69.9003 65.8662L69.6724 65.7866L69.7813 64.8848L70.1175 65.0022L69.9003 65.8662Z" fill="#FFB6B6"/>
    <path d="M69.8499 66.1035L69.1488 65.8588L69.151 65.8501C69.1883 65.7017 69.3407 65.6241 69.4914 65.6767L69.4914 65.6767L69.6436 65.6258L69.8585 65.8048L69.9197 65.8262L69.8499 66.1035Z" fill="#2F2E41"/>
    <path d="M68.9884 65.5479L68.7606 65.4684L68.8694 64.5666L69.2056 64.6839L68.9884 65.5479Z" fill="#FFB6B6"/>
    <path d="M68.9381 65.7853L68.237 65.5406L68.2391 65.5318C68.2764 65.3835 68.4289 65.3059 68.5796 65.3585L68.5796 65.3585L68.7317 65.3076L68.9466 65.4866L69.0078 65.508L68.9381 65.7853Z" fill="#2F2E41"/>
    <path d="M71.3248 56.1574C71.3758 56.2572 71.3409 56.3723 71.2468 56.4143C71.2037 56.4335 71.1558 56.4339 71.1115 56.4192L71.1113 56.4194L70.541 56.9543L70.2916 56.7196L70.9689 56.154L70.9702 56.1556C70.9848 56.1108 71.0165 56.073 71.0622 56.0525C71.1563 56.0105 71.2738 56.0575 71.3248 56.1574Z" fill="#FFB6B6"/>
    <path d="M70.1798 59.7541C70.1798 59.7541 69.1977 62.1323 69.2803 62.6914L68.7636 64.8695L69.1503 65.0045L70.0018 63.0712C70.0018 63.0712 69.9803 63.0088 70.0656 62.9654C70.1508 62.9221 70.1339 62.9893 70.1508 62.9221C70.1677 62.8548 70.0389 62.5539 70.0389 62.5539L70.4459 61.6538L69.7038 65.1977L70.067 65.3061C70.067 65.3061 70.692 64.2993 70.7717 63.7603C70.7717 63.7603 70.8262 63.3954 70.8389 63.345C70.8516 63.2946 70.8214 63.1927 70.8854 63.1601C70.9493 63.1276 70.9957 63.0059 70.9765 62.9767C70.9574 62.9476 70.9809 62.8539 70.9809 62.8539L71.6968 61.6333L71.9571 60.5981L70.1798 59.7541Z" fill="#2F2E41"/>
    <path d="M72.1758 57.0652L71.6503 56.9367L71.3208 57.1734L70.9678 57.2846L70.5194 59.0685L70.4773 59.5033C70.3191 59.5513 70.0884 59.6422 70.1221 59.8403C70.1221 59.8403 71.4652 60.815 71.9769 60.5548L72.199 59.5232L72.655 58.1575C72.7454 57.8868 72.6292 57.5699 72.3765 57.3975L72.1756 57.2605L72.1758 57.0652Z" fill="#FF8B33"/>
    <path d="M71.6409 61.4596C71.7477 61.4774 71.8399 61.4051 71.847 61.2982C71.8502 61.2492 71.8348 61.2016 71.8071 61.1625L71.8072 61.1623L72.1108 60.2507L71.8489 60.0014L71.5214 61.1083L71.5232 61.109C71.4876 61.1382 71.4639 61.1819 71.4604 61.2339C71.4534 61.3408 71.5342 61.4418 71.6409 61.4596Z" fill="#FFB6B6"/>
    <path d="M72.0413 60.5988L71.7057 60.4994L71.7463 59.7943L71.9239 57.8669C71.9342 57.7557 71.9915 57.6584 72.0812 57.6001C72.1709 57.5417 72.2852 57.5273 72.3948 57.5605C72.602 57.623 72.7391 57.8348 72.7069 58.0421L72.4673 59.5884L72.0413 60.5988Z" fill="#FF8B33"/>
    <path d="M70.9894 57.2728L70.8461 57.9907L70.0573 57.7353C69.7696 57.6422 69.6676 57.2715 69.8783 57.0849L70.4759 56.5089L70.6872 56.8389L70.3617 57.2548L70.9894 57.2728Z" fill="#FF8B33"/>
    <path d="M71.8488 56.8162C72.1133 56.9085 72.3807 56.7725 72.446 56.5125C72.5114 56.2524 72.35 55.9668 72.0855 55.8745C71.8211 55.7822 71.5537 55.9182 71.4883 56.1782C71.423 56.4383 71.5844 56.7239 71.8488 56.8162Z" fill="#FFB6B6"/>
    <path d="M72.363 56.8334C72.2947 56.8794 72.2406 56.9015 72.1619 56.9033C72.1632 56.8931 72.165 56.8829 72.1677 56.873C72.1544 56.8829 72.1412 56.8929 72.1278 56.9027C72.0796 56.9006 72.0222 56.8921 71.9487 56.8782L71.9402 56.7615C71.9466 56.7123 71.9894 56.6799 72.033 56.6599C72.0766 56.64 72.125 56.6267 72.1597 56.5941C72.1944 56.5616 72.2095 56.5001 72.1753 56.4602C72.1418 56.4207 72.0817 56.4226 72.0404 56.3917C71.9927 56.356 71.9841 56.2849 72.0061 56.2345C72.0282 56.184 72.0728 56.1494 72.1158 56.1167C72.0332 56.1226 71.9192 56.0873 71.8141 56.0299C71.8266 55.9975 71.8272 55.9592 71.8133 55.9248C71.8035 55.9552 71.7812 55.9801 71.7527 55.993C71.6541 55.9283 71.572 55.8457 71.5457 55.7638C71.566 55.7656 71.5864 55.7672 71.6067 55.769C71.6109 55.7286 71.615 55.6884 71.6192 55.6481C71.6396 55.6675 71.6601 55.6871 71.6806 55.7065C71.6884 55.695 71.698 55.686 71.7092 55.6789C71.7305 55.6795 71.7518 55.6829 71.7729 55.6887C71.7796 55.6907 71.7865 55.6927 71.7933 55.6951C71.8033 55.6986 71.8134 55.7025 71.8231 55.7071C71.8135 55.6917 71.8036 55.6763 71.794 55.6607C71.7928 55.6589 71.7918 55.6572 71.7907 55.6553C71.8158 55.6536 71.8422 55.6549 71.867 55.6566C71.9754 55.6643 72.0875 55.6731 72.1877 55.7253C72.2517 55.7586 72.3095 55.8148 72.3403 55.8791C72.3677 55.9366 72.4156 55.9817 72.4706 56.0134C72.497 56.0287 72.5209 56.0503 72.539 56.0752C72.5227 56.0793 72.5058 56.0819 72.4886 56.0826C72.5164 56.0999 72.544 56.1172 72.5717 56.1347C72.5902 56.18 72.5983 56.2291 72.6018 56.2767C72.6183 56.4965 72.5353 56.7176 72.363 56.8334Z" fill="#2F2E41"/>
    <path d="M70.7271 56.1381C70.7271 56.1384 70.727 56.1388 70.7269 56.139C70.7255 56.1433 70.7205 56.1428 70.7189 56.1427C70.7102 56.1418 70.6634 56.128 70.659 56.1142C70.6576 56.11 70.6454 56.1077 70.6365 56.106C70.6303 56.1049 70.6238 56.1037 70.6183 56.1017C70.4785 56.0515 70.3688 56.024 70.3013 56.0219C70.2502 56.0204 70.204 56.0395 70.171 56.0756C70.1382 56.1117 70.1229 56.1599 70.1283 56.2116L70.1435 56.3598C70.1487 56.4109 70.1733 56.4587 70.2129 56.4943C70.2527 56.5301 70.3026 56.5491 70.3532 56.5477C70.4476 56.545 70.5913 56.4996 70.6952 56.4619C70.6994 56.4603 70.7053 56.459 70.711 56.4578C70.7158 56.4567 70.7227 56.4552 70.726 56.4538C70.7256 56.4522 70.7261 56.451 70.7263 56.4505C70.728 56.4467 70.7321 56.4471 70.7373 56.4476C70.7405 56.4479 70.748 56.4486 70.7495 56.447C70.7498 56.4467 70.7497 56.446 70.7496 56.4456C70.7489 56.4409 70.7513 56.4392 70.7527 56.4386C70.7569 56.4369 70.7601 56.4403 70.7659 56.4465C70.7703 56.4512 70.7807 56.4623 70.7848 56.4608C70.7859 56.4605 70.7911 56.4572 70.7902 56.429C70.7899 56.421 70.7926 56.4146 70.7979 56.4106C70.8108 56.4008 70.8351 56.4076 70.8362 56.4079L70.9008 56.4318C71.0202 56.476 71.1457 56.4645 71.2451 56.4005L71.2463 56.3997L71.3123 56.4008L71.2959 56.202L71.2281 56.2009L71.2266 56.1997C71.1355 56.1284 71.0157 56.1172 70.8602 56.1657L70.8161 56.1795L70.8147 56.1791C70.7884 56.172 70.7562 56.1617 70.7519 56.1528C70.7513 56.1514 70.751 56.15 70.7512 56.1486C70.7476 56.1454 70.7351 56.1403 70.7271 56.1381Z" fill="#2F2E41"/>
    <path d="M71.3988 56.197C71.3981 56.1891 71.3912 56.1825 71.3834 56.1824L71.2878 56.1809C71.28 56.1808 71.2741 56.1872 71.2748 56.1951L71.2932 56.4182C71.2939 56.4261 71.3008 56.4327 71.3086 56.4328L71.4042 56.4343C71.412 56.4344 71.4179 56.428 71.4172 56.4201L71.3988 56.197Z" fill="#3F3D56"/>
    <path d="M71.374 56.3478C71.4024 56.3577 71.4311 56.3431 71.4381 56.3152C71.4452 56.2873 71.4278 56.2566 71.3994 56.2467C71.371 56.2368 71.3422 56.2514 71.3352 56.2793C71.3282 56.3072 71.3455 56.3379 71.374 56.3478Z" fill="#3F3D56"/>
  </g>
  <path d="M3.62202 158.129V147.126H130.01V158.129H3.62202Z" stroke="black" stroke-width="4"/>
  <path d="M30.6552 90.5353L17.6653 40.2328H25.7401L38.73 87.4508C50.8358 83.7764 59.6448 85.9086 73.4867 90.5353L88.9342 97.2161L94.5512 100.545L106.839 107.827C121.545 126.701 118.872 134.664 106.839 147.126H30.6552C13.0713 128.29 7.40098 114.813 30.6552 90.5353Z" fill="#FF8B33"/>
  <path d="M6.7819 24.5133C0.0119971 29.6041 0.812622 32.6489 6.7819 38.2678H42.5916C46.9372 36.2727 47.7434 35.1541 42.5916 33.159L6.7819 24.5133Z" fill="#FF8B33"/>
  <path d="M106.839 19.0114C109.631 26.0555 111.603 26.0094 115.265 24.5133L120.882 8.00775C121.026 2.35641 120.315 0.477173 115.265 3.29189L106.839 19.0114Z" fill="#FF8B33"/>
  <path d="M30.6552 90.5353L17.6653 40.2328H25.7401L38.73 87.4508M30.6552 90.5353C7.40098 114.813 13.0713 128.29 30.6552 147.126H106.839C118.872 134.664 121.545 126.701 106.839 107.827L94.5512 100.545L88.9342 97.2161L73.4867 90.5353C59.6448 85.9086 50.8358 83.7764 38.73 87.4508M30.6552 90.5353C33.5403 89.2349 36.2068 88.2167 38.73 87.4508M6.7819 38.2678C0.812622 32.6489 0.0119971 29.6041 6.7819 24.5133L42.5916 33.159C47.7434 35.1541 46.9372 36.2727 42.5916 38.2678H6.7819ZM115.265 24.5133C111.603 26.0094 109.631 26.0555 106.839 19.0114L115.265 3.29189C120.315 0.477173 121.026 2.35641 120.882 8.00775L115.265 24.5133Z" stroke="black" stroke-width="4"/>
  <path d="M125.446 18.6184L102.977 105.076L94.9023 99.574L116.318 20.1904L119.829 13.5096L121.935 11.1517L123.691 8.40075L128.255 5.25685L131.766 4.07788H134.223H139.489L141.947 5.25685L143 8.40075L141.245 11.1517L138.085 12.3306L134.223 13.5096H131.766L128.255 15.4745L125.446 18.6184Z" fill="white" stroke="black" stroke-width="4"/>
  <path d="M57.6988 118.437C57.6988 126.504 51.6538 132.622 44.6982 132.622C37.7425 132.622 31.6975 126.504 31.6975 118.437C31.6975 110.371 37.7425 104.253 44.6982 104.253C51.6538 104.253 57.6988 110.371 57.6988 118.437Z" fill="white" stroke="black" stroke-width="7"/>
  <rect x="70.0182" y="113.471" width="20.9798" height="7.57562" rx="3.78781" fill="white" stroke="black" stroke-width="5"/>
  <rect x="60.4967" y="115.687" width="8.42588" height="3.92988" fill="black"/>
  <path d="M20.6908 164.672C18.7077 164.672 16.5801 162.927 15.8952 160.027H25.4864C24.8014 162.927 22.6739 164.672 20.6908 164.672Z" fill="#FF8B33" stroke="black" stroke-width="4"/>
  <path d="M113.861 164.775C111.877 164.775 109.75 163.029 109.065 160.129H118.656C117.971 163.029 115.844 164.775 113.861 164.775Z" fill="#FF8B33" stroke="black" stroke-width="4"/>
  <path d="M58.0843 166.321C57.8283 165.852 57.4763 165.495 57.0283 165.249C56.5803 165.004 56.0576 164.881 55.4603 164.881C54.7989 164.881 54.2123 165.031 53.7003 165.329C53.1883 165.628 52.7883 166.055 52.5003 166.609C52.2123 167.164 52.0683 167.804 52.0683 168.529C52.0683 169.276 52.2123 169.927 52.5003 170.481C52.7989 171.036 53.2096 171.463 53.7323 171.761C54.2549 172.06 54.8629 172.209 55.5563 172.209C56.4096 172.209 57.1083 171.985 57.6523 171.537C58.1963 171.079 58.5536 170.444 58.7243 169.633H54.8843V167.921H60.9323V169.873C60.7829 170.652 60.4629 171.372 59.9723 172.033C59.4816 172.695 58.8469 173.228 58.0683 173.633C57.3003 174.028 56.4363 174.225 55.4763 174.225C54.3989 174.225 53.4229 173.985 52.5483 173.505C51.6843 173.015 51.0016 172.337 50.5003 171.473C50.0096 170.609 49.7643 169.628 49.7643 168.529C49.7643 167.431 50.0096 166.449 50.5003 165.585C51.0016 164.711 51.6843 164.033 52.5483 163.553C53.4229 163.063 54.3936 162.817 55.4603 162.817C56.7189 162.817 57.8123 163.127 58.7403 163.745C59.6683 164.353 60.3083 165.212 60.6603 166.321H58.0843ZM71.0695 165.265L65.5815 178.321H63.1975L65.1175 173.905L61.5655 165.265H64.0775L66.3655 171.457L68.6855 165.265H71.0695ZM83.285 165.137C84.373 165.137 85.2477 165.473 85.909 166.145C86.581 166.807 86.917 167.735 86.917 168.929V174.129H84.677V169.233C84.677 168.54 84.501 168.012 84.149 167.649C83.797 167.276 83.317 167.089 82.709 167.089C82.101 167.089 81.6157 167.276 81.253 167.649C80.901 168.012 80.725 168.54 80.725 169.233V174.129H78.485V169.233C78.485 168.54 78.309 168.012 77.957 167.649C77.605 167.276 77.125 167.089 76.517 167.089C75.8984 167.089 75.4077 167.276 75.045 167.649C74.693 168.012 74.517 168.54 74.517 169.233V174.129H72.277V165.265H74.517V166.337C74.805 165.964 75.173 165.671 75.621 165.457C76.0797 165.244 76.581 165.137 77.125 165.137C77.8184 165.137 78.437 165.287 78.981 165.585C79.525 165.873 79.9464 166.289 80.245 166.833C80.533 166.321 80.949 165.911 81.493 165.601C82.0477 165.292 82.645 165.137 83.285 165.137Z" fill="black"/>
  <path d="M25.7817 188.579C25.7817 187.755 25.9617 187.019 26.3217 186.371C26.6817 185.715 27.1737 185.207 27.7977 184.847C28.4217 184.479 29.1177 184.295 29.8857 184.295C30.8217 184.295 31.6217 184.519 32.2857 184.967C32.9577 185.407 33.4457 186.031 33.7497 186.839H32.7657C32.5257 186.271 32.1577 185.827 31.6617 185.507C31.1737 185.187 30.5817 185.027 29.8857 185.027C29.2697 185.027 28.7137 185.171 28.2177 185.459C27.7297 185.747 27.3457 186.163 27.0657 186.707C26.7857 187.243 26.6457 187.867 26.6457 188.579C26.6457 189.291 26.7857 189.915 27.0657 190.451C27.3457 190.987 27.7297 191.399 28.2177 191.687C28.7137 191.975 29.2697 192.119 29.8857 192.119C30.5817 192.119 31.1737 191.963 31.6617 191.651C32.1577 191.331 32.5257 190.891 32.7657 190.331H33.7497C33.4457 191.131 32.9577 191.751 32.2857 192.191C31.6137 192.631 30.8137 192.851 29.8857 192.851C29.1177 192.851 28.4217 192.671 27.7977 192.311C27.1737 191.943 26.6817 191.435 26.3217 190.787C25.9617 190.139 25.7817 189.403 25.7817 188.579ZM41.0996 186.227V192.779H40.2596V191.627C40.0676 192.035 39.7716 192.347 39.3716 192.563C38.9716 192.779 38.5236 192.887 38.0276 192.887C37.2436 192.887 36.6036 192.647 36.1076 192.167C35.6116 191.679 35.3636 190.975 35.3636 190.055V186.227H36.1916V189.959C36.1916 190.671 36.3676 191.215 36.7196 191.591C37.0796 191.967 37.5676 192.155 38.1836 192.155C38.8156 192.155 39.3196 191.955 39.6956 191.555C40.0716 191.155 40.2596 190.567 40.2596 189.791V186.227H41.0996ZM43.8573 183.899V192.779H43.0173V183.899H43.8573ZM46.8515 186.935V191.003C46.8515 191.403 46.9275 191.679 47.0795 191.831C47.2315 191.983 47.4995 192.059 47.8835 192.059H48.6515V192.779H47.7515C47.1595 192.779 46.7195 192.643 46.4315 192.371C46.1435 192.091 45.9995 191.635 45.9995 191.003V186.935H45.0875V186.227H45.9995V184.583H46.8515V186.227H48.6515V186.935H46.8515ZM55.7128 186.227V192.779H54.8728V191.627C54.6808 192.035 54.3848 192.347 53.9848 192.563C53.5848 192.779 53.1368 192.887 52.6408 192.887C51.8568 192.887 51.2168 192.647 50.7208 192.167C50.2248 191.679 49.9768 190.975 49.9768 190.055V186.227H50.8048V189.959C50.8048 190.671 50.9808 191.215 51.3328 191.591C51.6928 191.967 52.1808 192.155 52.7968 192.155C53.4288 192.155 53.9328 191.955 54.3088 191.555C54.6848 191.155 54.8728 190.567 54.8728 189.791V186.227H55.7128ZM58.4706 187.391C58.6546 186.983 58.9346 186.667 59.3106 186.443C59.6946 186.219 60.1626 186.107 60.7146 186.107V186.983H60.4866C59.8786 186.983 59.3906 187.147 59.0226 187.475C58.6546 187.803 58.4706 188.351 58.4706 189.119V192.779H57.6306V186.227H58.4706V187.391ZM61.5942 189.491C61.5942 188.819 61.7262 188.231 61.9902 187.727C62.2622 187.215 62.6342 186.823 63.1062 186.551C63.5862 186.271 64.1262 186.131 64.7262 186.131C65.3502 186.131 65.8862 186.275 66.3342 186.563C66.7902 186.851 67.1182 187.219 67.3182 187.667V186.227H68.1582V192.779H67.3182V191.327C67.1102 191.775 66.7782 192.147 66.3222 192.443C65.8742 192.731 65.3382 192.875 64.7142 192.875C64.1222 192.875 63.5862 192.735 63.1062 192.455C62.6342 192.175 62.2622 191.779 61.9902 191.267C61.7262 190.755 61.5942 190.163 61.5942 189.491ZM67.3182 189.503C67.3182 188.975 67.2102 188.511 66.9942 188.111C66.7782 187.711 66.4822 187.403 66.1062 187.187C65.7382 186.971 65.3302 186.863 64.8822 186.863C64.4182 186.863 64.0022 186.967 63.6342 187.175C63.2662 187.383 62.9742 187.687 62.7582 188.087C62.5502 188.479 62.4462 188.947 62.4462 189.491C62.4462 190.027 62.5502 190.499 62.7582 190.907C62.9742 191.307 63.2662 191.615 63.6342 191.831C64.0022 192.039 64.4182 192.143 64.8822 192.143C65.3302 192.143 65.7382 192.035 66.1062 191.819C66.4822 191.603 66.7782 191.295 66.9942 190.895C67.2102 190.495 67.3182 190.031 67.3182 189.503ZM77.9049 184.391V185.087H74.2089V188.219H77.3289V188.915H74.2089V192.779H73.3689V184.391H77.9049ZM79.7068 184.991C79.5388 184.991 79.3948 184.931 79.2748 184.811C79.1548 184.691 79.0948 184.543 79.0948 184.367C79.0948 184.191 79.1548 184.047 79.2748 183.935C79.3948 183.815 79.5388 183.755 79.7068 183.755C79.8748 183.755 80.0188 183.815 80.1388 183.935C80.2588 184.047 80.3188 184.191 80.3188 184.367C80.3188 184.543 80.2588 184.691 80.1388 184.811C80.0188 184.931 79.8748 184.991 79.7068 184.991ZM80.1268 186.227V192.779H79.2868V186.227H80.1268ZM83.121 186.935V191.003C83.121 191.403 83.197 191.679 83.349 191.831C83.501 191.983 83.769 192.059 84.153 192.059H84.921V192.779H84.021C83.429 192.779 82.989 192.643 82.701 192.371C82.413 192.091 82.269 191.635 82.269 191.003V186.935H81.357V186.227H82.269V184.583H83.121V186.227H84.921V186.935H83.121ZM89.3784 186.107C90.1624 186.107 90.8024 186.351 91.2984 186.839C91.7944 187.319 92.0424 188.019 92.0424 188.939V192.779H91.2144V189.035C91.2144 188.323 91.0344 187.779 90.6744 187.403C90.3224 187.027 89.8384 186.839 89.2224 186.839C88.5904 186.839 88.0864 187.039 87.7104 187.439C87.3344 187.839 87.1464 188.427 87.1464 189.203V192.779H86.3064V186.227H87.1464V187.343C87.3544 186.943 87.6544 186.639 88.0464 186.431C88.4384 186.215 88.8824 186.107 89.3784 186.107ZM99.8281 189.167C99.8281 189.455 99.8201 189.675 99.8041 189.827H94.3681C94.3921 190.323 94.5121 190.747 94.7281 191.099C94.9441 191.451 95.2281 191.719 95.5801 191.903C95.9321 192.079 96.3161 192.167 96.7321 192.167C97.2761 192.167 97.7321 192.035 98.1001 191.771C98.4761 191.507 98.7241 191.151 98.8441 190.703H99.7321C99.5721 191.343 99.2281 191.867 98.7001 192.275C98.1801 192.675 97.5241 192.875 96.7321 192.875C96.1161 192.875 95.5641 192.739 95.0761 192.467C94.5881 192.187 94.2041 191.795 93.9241 191.291C93.6521 190.779 93.5161 190.183 93.5161 189.503C93.5161 188.823 93.6521 188.227 93.9241 187.715C94.1961 187.203 94.5761 186.811 95.0641 186.539C95.5521 186.267 96.1081 186.131 96.7321 186.131C97.3561 186.131 97.9001 186.267 98.3641 186.539C98.8361 186.811 99.1961 187.179 99.4441 187.643C99.7001 188.099 99.8281 188.607 99.8281 189.167ZM98.9761 189.143C98.9841 188.655 98.8841 188.239 98.6761 187.895C98.4761 187.551 98.2001 187.291 97.8481 187.115C97.4961 186.939 97.1121 186.851 96.6961 186.851C96.0721 186.851 95.5401 187.051 95.1001 187.451C94.6601 187.851 94.4161 188.415 94.3681 189.143H98.9761ZM103.621 192.875C102.869 192.875 102.253 192.703 101.773 192.359C101.301 192.007 101.037 191.531 100.981 190.931H101.845C101.885 191.299 102.057 191.599 102.361 191.831C102.673 192.055 103.089 192.167 103.609 192.167C104.065 192.167 104.421 192.059 104.677 191.843C104.941 191.627 105.073 191.359 105.073 191.039C105.073 190.815 105.001 190.631 104.857 190.487C104.713 190.343 104.529 190.231 104.305 190.151C104.089 190.063 103.793 189.971 103.417 189.875C102.929 189.747 102.533 189.619 102.229 189.491C101.925 189.363 101.665 189.175 101.449 188.927C101.241 188.671 101.137 188.331 101.137 187.907C101.137 187.587 101.233 187.291 101.425 187.019C101.617 186.747 101.889 186.531 102.241 186.371C102.593 186.211 102.993 186.131 103.441 186.131C104.145 186.131 104.713 186.311 105.145 186.671C105.577 187.023 105.809 187.511 105.841 188.135H105.001C104.977 187.751 104.825 187.443 104.545 187.211C104.273 186.971 103.897 186.851 103.417 186.851C102.993 186.851 102.649 186.951 102.385 187.151C102.121 187.351 101.989 187.599 101.989 187.895C101.989 188.151 102.065 188.363 102.217 188.531C102.377 188.691 102.573 188.819 102.805 188.915C103.037 189.003 103.349 189.103 103.741 189.215C104.213 189.343 104.589 189.467 104.869 189.587C105.149 189.707 105.389 189.883 105.589 190.115C105.789 190.347 105.893 190.655 105.901 191.039C105.901 191.391 105.805 191.707 105.613 191.987C105.421 192.259 105.153 192.475 104.809 192.635C104.465 192.795 104.069 192.875 103.621 192.875ZM109.738 192.875C108.986 192.875 108.37 192.703 107.89 192.359C107.418 192.007 107.154 191.531 107.098 190.931H107.962C108.002 191.299 108.174 191.599 108.478 191.831C108.79 192.055 109.206 192.167 109.726 192.167C110.182 192.167 110.538 192.059 110.794 191.843C111.058 191.627 111.19 191.359 111.19 191.039C111.19 190.815 111.118 190.631 110.974 190.487C110.83 190.343 110.646 190.231 110.422 190.151C110.206 190.063 109.91 189.971 109.534 189.875C109.046 189.747 108.65 189.619 108.346 189.491C108.042 189.363 107.782 189.175 107.566 188.927C107.358 188.671 107.254 188.331 107.254 187.907C107.254 187.587 107.35 187.291 107.542 187.019C107.734 186.747 108.006 186.531 108.358 186.371C108.71 186.211 109.11 186.131 109.558 186.131C110.262 186.131 110.83 186.311 111.262 186.671C111.694 187.023 111.926 187.511 111.958 188.135H111.118C111.094 187.751 110.942 187.443 110.662 187.211C110.39 186.971 110.014 186.851 109.534 186.851C109.11 186.851 108.766 186.951 108.502 187.151C108.238 187.351 108.106 187.599 108.106 187.895C108.106 188.151 108.182 188.363 108.334 188.531C108.494 188.691 108.69 188.819 108.922 188.915C109.154 189.003 109.466 189.103 109.858 189.215C110.33 189.343 110.706 189.467 110.986 189.587C111.266 189.707 111.506 189.883 111.706 190.115C111.906 190.347 112.01 190.655 112.018 191.039C112.018 191.391 111.922 191.707 111.73 191.987C111.538 192.259 111.27 192.475 110.926 192.635C110.582 192.795 110.186 192.875 109.738 192.875Z" fill="black"/>
  <defs>
    <clipPath id="clip0_0_218">
      <rect width="9.46743" height="10.6432" fill="white" transform="matrix(0.945061 0.329825 -0.243984 0.970567 68.7375 54.5162)"/>
    </clipPath>
  </defs>
</svg>
