<svg width="12" height="12" viewBox="0 0 12 12" fill="none" xmlns="http://www.w3.org/2000/svg">
  <path d="M8.07526 1.22577C8.82055 0.480439 10.029 0.480401 10.7744 1.22569C11.5196 1.97093 11.5196 3.17917 10.7744 3.92444L10.299 4.3999C10.9735 5.07698 10.9726 6.17253 10.2965 6.84854L9.34535 7.79962C9.18913 7.95582 8.93591 7.95582 8.77969 7.79962C8.62348 7.64341 8.62348 7.39021 8.77969 7.234L9.73084 6.28292C10.0945 5.91927 10.0953 5.33024 9.73335 4.96558L4.40102 10.2981C4.18425 10.5149 3.91157 10.6673 3.61333 10.7383L1.15932 11.3225C1.02419 11.3547 0.882051 11.3145 0.783826 11.2163C0.685608 11.118 0.645378 10.9759 0.677549 10.8408L1.26186 8.38688C1.33285 8.08872 1.48517 7.81615 1.70188 7.59942L8.07526 1.22577Z" fill="#FF8B33"/>
</svg>
