<svg width="20" height="20" viewBox="0 0 20 20" fill="none" xmlns="http://www.w3.org/2000/svg">
  <path d="M10.0122 0.25C10.7462 0.25846 11.4773 0.34326 12.1937 0.50304C12.5064 0.57279 12.7403 0.83351 12.7758 1.15196L12.946 2.67881C13.0231 3.37986 13.615 3.91084 14.3206 3.91158C14.5103 3.91188 14.6979 3.87238 14.8732 3.79483L16.2738 3.17956C16.5651 3.05159 16.9055 3.12136 17.1229 3.35362C18.1351 4.43464 18.8889 5.73115 19.3277 7.14558C19.4223 7.45058 19.3134 7.78203 19.0564 7.9715L17.8149 8.8866C17.4607 9.1468 17.2516 9.56 17.2516 9.9995C17.2516 10.4389 17.4607 10.8521 17.8157 11.1129L19.0582 12.0283C19.3153 12.2177 19.4243 12.5492 19.3297 12.8543C18.8911 14.2685 18.1377 15.5649 17.1261 16.6461C16.9089 16.8783 16.5688 16.9483 16.2775 16.8206L14.8712 16.2045C14.4688 16.0284 14.0068 16.0542 13.6265 16.274C13.2463 16.4937 12.9933 16.8812 12.945 17.3177L12.7759 18.8444C12.741 19.1592 12.5122 19.4182 12.204 19.4915C10.7556 19.8361 9.2465 19.8361 7.79803 19.4915C7.48991 19.4182 7.26105 19.1592 7.22618 18.8444L7.05736 17.32C7.00777 16.8843 6.75434 16.498 6.37442 16.279C5.99451 16.06 5.5332 16.0343 5.1322 16.2094L3.72557 16.8256C3.43422 16.9533 3.09403 16.8833 2.87678 16.6509C1.86462 15.5685 1.11119 14.2705 0.673201 12.8548C0.578861 12.5499 0.687861 12.2186 0.944851 12.0293L2.18818 11.1133C2.54232 10.8531 2.75147 10.4399 2.75147 10.0005C2.75147 9.561 2.54232 9.1478 2.18771 8.8873L0.945161 7.97285C0.687801 7.78345 0.578701 7.45178 0.673371 7.14658C1.11212 5.73215 1.86594 4.43564 2.87813 3.35462C3.09559 3.12236 3.43594 3.05259 3.72724 3.18056L5.12762 3.79572C5.53056 3.97256 5.9938 3.94585 6.37577 3.72269C6.75609 3.50209 7.00929 3.11422 7.05817 2.67764L7.22824 1.15196C7.26376 0.83335 7.49786 0.57254 7.8108 0.50294C8.5281 0.34342 9.26 0.25865 10.0122 0.25ZM9.9997 6.99995C8.3428 6.99995 6.9997 8.3431 6.9997 10C6.9997 11.6568 8.3428 13 9.9997 13C11.6565 13 12.9997 11.6568 12.9997 10C12.9997 8.3431 11.6565 6.99995 9.9997 6.99995Z" fill="#919191"/>
</svg>
